<svg width="14" height="14" viewBox="0 0 14 14" fill="none" xmlns="http://www.w3.org/2000/svg">
<path d="M11.8462 5.42949C11.8462 5.60897 11.9135 5.76603 12.0481 5.90064C12.1827 6.03526 12.3397 6.10256 12.5192 6.10256C12.6987 6.10256 12.8558 6.03526 12.9904 5.90064C13.641 5.25 14 4.375 14 3.45513C14 2.53526 13.641 1.66026 12.9904 1.00962C12.3397 0.358974 11.4647 0 10.5449 0C9.625 0 8.75 0.358974 8.09936 1.00962L1.00962 8.09936C0.358974 8.75 0 9.625 0 10.5449C0 11.4647 0.358974 12.3397 1.00962 12.9904C1.66026 13.641 2.53526 14 3.45513 14C4.375 14 5.25 13.641 5.90064 12.9904L10.7244 8.16667C11.4423 7.35897 11.3974 6.125 10.6346 5.33974C10.2532 4.95833 9.73718 4.73397 9.17628 4.73397C8.61539 4.73397 8.09936 4.95833 7.71795 5.33974L3.76923 9.28846C3.63462 9.42308 3.56731 9.58013 3.56731 9.75962C3.56731 9.9391 3.63462 10.0962 3.76923 10.2308C4.01603 10.4776 4.46474 10.4776 4.71154 10.2308L8.66026 6.28205C8.92949 6.01282 9.40064 6.01282 9.69231 6.28205C9.98397 6.57372 9.98397 7.02244 9.69231 7.3141L4.95833 12.0481C4.55449 12.4519 4.01603 12.6763 3.45513 12.6763C2.89423 12.6763 2.35577 12.4519 1.95192 12.0481C1.54808 11.6442 1.32372 11.1058 1.32372 10.5449C1.32372 9.98398 1.54808 9.44551 1.95192 9.04167L9.04167 1.95192C9.44551 1.54808 9.98398 1.32372 10.5449 1.32372C11.1058 1.32372 11.6442 1.54808 12.0481 1.95192C12.8782 2.78205 12.8782 4.12821 12.0481 4.95833C11.9135 5.07051 11.8462 5.25 11.8462 5.42949Z" fill="#F36327"/>
</svg>
